<svg width="10" height="13" viewBox="0 0 10 13" fill="none" xmlns="http://www.w3.org/2000/svg">
<path fill-rule="evenodd" clip-rule="evenodd" d="M5.39151 12.8371C5.28763 12.9414 5.14682 13 5 13C4.85318 13 4.71237 12.9414 4.60849 12.8371L0.176332 8.37974C0.1219 8.32874 0.0782413 8.26723 0.0479612 8.19888C0.0176802 8.13054 0.00139904 8.05676 8.58307e-05 7.98195C-0.00122643 7.90714 0.0124569 7.83283 0.0403214 7.76345C0.0681858 7.69407 0.10966 7.63105 0.162269 7.57814C0.214877 7.52524 0.277544 7.48353 0.346529 7.4555C0.415514 7.42748 0.489405 7.41372 0.563793 7.41504C0.638182 7.41636 0.711544 7.43273 0.779504 7.46319C0.847464 7.49364 0.908628 7.53755 0.959348 7.59229L4.44598 11.0987L4.44598 0.557163C4.44598 0.409394 4.50435 0.267677 4.60825 0.163189C4.71215 0.0587006 4.85306 0 5 0C5.14693 0 5.28785 0.0587006 5.39175 0.163189C5.49565 0.267677 5.55402 0.409394 5.55402 0.557163L5.55402 11.0987L9.04065 7.59229C9.09137 7.53755 9.15254 7.49364 9.2205 7.46319C9.28846 7.43273 9.36182 7.41636 9.43621 7.41504C9.5106 7.41372 9.58449 7.42748 9.65347 7.4555C9.72246 7.48353 9.78512 7.52524 9.83773 7.57814C9.89034 7.63105 9.93181 7.69407 9.95968 7.76345C9.98754 7.83283 10.0012 7.90714 9.99991 7.98195C9.9986 8.05676 9.98232 8.13054 9.95204 8.19888C9.92176 8.26723 9.8781 8.32874 9.82367 8.37974L5.39151 12.8371Z" fill="white"/>
</svg>
