<svg width="24" height="24" viewBox="0 0 24 24" fill="none" xmlns="http://www.w3.org/2000/svg">
<path d="M1.1248 9.2112H22.8752V7.6112H1.1248V9.2112ZM22.4 8.736V9.4384H24V8.736H22.4ZM19.8176 22.0112H4.1824V23.6112H19.8176V22.0112ZM1.6 9.4384V8.736H0V9.4384H1.6ZM4.6336 22.2896C2.63856 18.2994 1.59995 13.8995 1.6 9.4384H0C0 14.1488 1.096 18.7936 3.2032 23.0064L4.6336 22.2896ZM4.1824 22.0112C4.3744 22.0112 4.5488 22.12 4.6336 22.2896L3.2032 23.0064C3.29501 23.1875 3.435 23.3398 3.60775 23.4465C3.78051 23.5532 3.97935 23.6102 4.1824 23.6112V22.0112ZM19.3664 22.2896C19.409 22.2064 19.4736 22.1365 19.5532 22.0875C19.6327 22.0384 19.7241 22.012 19.8176 22.0112V23.6112C20.2336 23.6112 20.6112 23.3776 20.7968 23.0064L19.3664 22.2896ZM22.4 9.4384C22.4 13.8992 21.36 18.2992 19.3664 22.2896L20.7968 23.0064C22.9033 18.7937 24 14.1484 24 9.4384H22.4ZM22.8752 9.2112C22.7492 9.2112 22.6283 9.16113 22.5392 9.07202C22.4501 8.9829 22.4 8.86203 22.4 8.736H24C24 8.43768 23.8815 8.15159 23.6706 7.94065C23.4596 7.7297 23.1735 7.6112 22.8752 7.6112V9.2112ZM1.1248 7.6112C0.826485 7.6112 0.540387 7.7297 0.329446 7.94065C0.118505 8.15159 0 8.43768 0 8.736H1.6C1.6 8.86203 1.54993 8.9829 1.46082 9.07202C1.3717 9.16113 1.25083 9.2112 1.1248 9.2112V7.6112ZM6.2864 8.8224L11.0864 0.8224L9.712 0L4.912 8L6.2864 8.8224ZM12.9136 0.8224L17.7136 8.8224L19.0864 8L14.2864 0L12.9136 0.8224Z" fill="#02075D"/>
</svg>
