<svg width="23" height="23" viewBox="0 0 23 23" fill="none" xmlns="http://www.w3.org/2000/svg">
<path d="M16.6 8.475C16.7656 8.29728 16.8558 8.06222 16.8515 7.81935C16.8472 7.57647 16.7488 7.34474 16.577 7.17297C16.4053 7.00121 16.1735 6.90282 15.9307 6.89853C15.6878 6.89425 15.4527 6.9844 15.275 7.15L9.6875 12.7375L7.845 10.895C7.66728 10.7294 7.43222 10.6392 7.18935 10.6435C6.94647 10.6478 6.71474 10.7462 6.54297 10.918C6.37121 11.0897 6.27282 11.3215 6.26853 11.5643C6.26425 11.8072 6.3544 12.0423 6.52 12.22L9.025 14.725C9.20078 14.9006 9.43906 14.9992 9.6875 14.9992C9.93594 14.9992 10.1742 14.9006 10.35 14.725L16.6 8.475ZM4.0625 0C2.98506 0 1.95175 0.428012 1.18988 1.18988C0.428012 1.95175 0 2.98506 0 4.0625V18.4375C0 19.5149 0.428012 20.5483 1.18988 21.3101C1.95175 22.072 2.98506 22.5 4.0625 22.5H18.4375C19.5149 22.5 20.5483 22.072 21.3101 21.3101C22.072 20.5483 22.5 19.5149 22.5 18.4375V4.0625C22.5 2.98506 22.072 1.95175 21.3101 1.18988C20.5483 0.428012 19.5149 0 18.4375 0H4.0625ZM1.875 4.0625C1.875 2.855 2.855 1.875 4.0625 1.875H18.4375C19.645 1.875 20.625 2.855 20.625 4.0625V18.4375C20.625 19.0177 20.3945 19.5741 19.9843 19.9843C19.5741 20.3945 19.0177 20.625 18.4375 20.625H4.0625C3.48234 20.625 2.92594 20.3945 2.5157 19.9843C2.10547 19.5741 1.875 19.0177 1.875 18.4375V4.0625Z" fill="#F7E76F"/>
</svg>
