<svg width="42" height="42" viewBox="0 0 42 42" fill="none" xmlns="http://www.w3.org/2000/svg">
<mask id="mask0_2001_149" style="mask-type:luminance" maskUnits="userSpaceOnUse" x="0" y="0" width="42" height="42">
<path d="M26.6448 0H26.5692H22.5666H15.3552C2.709 0 0 2.7132 0 15.3552V26.6448C0 39.291 2.7132 42 15.3552 42H22.5666H26.5692H26.6448C39.291 42 42 39.2868 42 26.6448V15.3552C42 2.709 39.2868 0 26.6448 0Z" fill="white"/>
</mask>
<g mask="url(#mask0_2001_149)">
<rect x="-8.75" width="57.75" height="42" fill="#02075D"/>
</g>
<path fill-rule="evenodd" clip-rule="evenodd" d="M21.3449 36.8898C18.1946 36.8898 16.7306 36.4299 14.1858 34.5904C12.5762 36.6599 7.47901 38.2772 7.25673 35.5101C7.25673 33.433 6.79683 31.6777 6.27562 29.7614C5.65476 27.4006 4.94958 24.7716 4.94958 20.9621C4.94958 11.8638 12.4152 5.01904 21.2606 5.01904C30.1136 5.01904 37.0503 12.2011 37.0503 21.0464C37.08 29.755 30.0533 36.8434 21.3449 36.8898ZM21.4752 12.8833C17.1675 12.661 13.8102 15.6426 13.0667 20.3183C12.4536 24.189 13.542 28.903 14.4694 29.1483C14.914 29.2556 16.0331 28.3511 16.7306 27.6536C17.884 28.4504 19.227 28.9289 20.6244 29.0409C25.0878 29.2556 28.9017 25.8576 29.2014 21.399C29.3759 16.931 25.9393 13.1466 21.4752 12.8909L21.4752 12.8833Z" fill="white"/>
</svg>
