<svg width="12" height="12" viewBox="0 0 12 12" fill="none" xmlns="http://www.w3.org/2000/svg">
<path d="M2.41333 5.19333C3.37333 7.08 4.92 8.62667 6.80667 9.58667L8.27333 8.12C8.46 7.93333 8.72 7.88 8.95333 7.95333C9.7 8.2 10.5 8.33333 11.3333 8.33333C11.5101 8.33333 11.6797 8.40357 11.8047 8.5286C11.9298 8.65362 12 8.82319 12 9V11.3333C12 11.5101 11.9298 11.6797 11.8047 11.8047C11.6797 11.9298 11.5101 12 11.3333 12C8.32755 12 5.44487 10.806 3.31946 8.68054C1.19404 6.55513 0 3.67245 0 0.666667C0 0.489856 0.0702379 0.320286 0.195262 0.195262C0.320286 0.0702379 0.489856 0 0.666667 0H3C3.17681 0 3.34638 0.0702379 3.4714 0.195262C3.59643 0.320286 3.66667 0.489856 3.66667 0.666667C3.66667 1.5 3.8 2.3 4.04667 3.04667C4.12 3.28 4.06667 3.54 3.88 3.72667L2.41333 5.19333Z" fill="#02075D"/>
</svg>
