<svg width="30" height="30" viewBox="0 0 30 30" fill="none" xmlns="http://www.w3.org/2000/svg">
<path d="M14.5833 0C6.53333 0 0 6.53333 0 14.5833C0 22.6333 6.53333 29.1667 14.5833 29.1667C22.6333 29.1667 29.1667 22.6333 29.1667 14.5833C29.1667 6.53333 22.6333 0 14.5833 0ZM21.35 9.91667C21.1313 12.2208 20.1833 17.8208 19.7021 20.4021C19.4979 21.4958 19.0896 21.8604 18.7104 21.9042C17.8646 21.9771 17.2229 21.35 16.4062 20.8104C15.1229 19.9646 14.3938 19.4396 13.1542 18.6229C11.7104 17.675 12.6438 17.15 13.475 16.3042C13.6938 16.0854 17.4271 12.6875 17.5 12.3813C17.5101 12.3349 17.5088 12.2867 17.4961 12.241C17.4834 12.1952 17.4597 12.1533 17.4271 12.1188C17.3396 12.0458 17.2229 12.075 17.1208 12.0896C16.9896 12.1188 14.9479 13.475 10.9667 16.1583C10.3833 16.5521 9.85833 16.7563 9.39167 16.7417C8.86667 16.7271 7.875 16.45 7.13125 16.2021C6.2125 15.9104 5.49792 15.75 5.55625 15.2396C5.58542 14.9771 5.95 14.7146 6.63542 14.4375C10.8938 12.5854 13.7229 11.3604 15.1375 10.7771C19.1917 9.08542 20.0229 8.79375 20.5771 8.79375C20.6938 8.79375 20.9708 8.82292 21.1458 8.96875C21.2917 9.08542 21.3354 9.24583 21.35 9.3625C21.3354 9.45 21.3646 9.7125 21.35 9.91667Z" fill="white"/>
</svg>
