<svg width="44" height="44" viewBox="0 0 44 44" fill="none" xmlns="http://www.w3.org/2000/svg">
<path d="M21.6667 0C9.70667 0 0 9.70667 0 21.6667C0 33.6267 9.70667 43.3333 21.6667 43.3333C33.6267 43.3333 43.3333 33.6267 43.3333 21.6667C43.3333 9.70667 33.6267 0 21.6667 0ZM31.72 14.7333C31.395 18.1567 29.9867 26.4767 29.2717 30.3117C28.9683 31.9367 28.3617 32.4783 27.7983 32.5433C26.5417 32.6517 25.5883 31.72 24.375 30.9183C22.4683 29.6617 21.385 28.8817 19.5433 27.6683C17.3983 26.26 18.785 25.48 20.02 24.2233C20.345 23.8983 25.8917 18.85 26 18.395C26.015 18.3261 26.013 18.2545 25.9942 18.1866C25.9753 18.1186 25.9401 18.0563 25.8917 18.005C25.7617 17.8967 25.5883 17.94 25.4367 17.9617C25.2417 18.005 22.2083 20.02 16.2933 24.0067C15.4267 24.5917 14.6467 24.895 13.9533 24.8733C13.1733 24.8517 11.7 24.44 10.595 24.0717C9.23 23.6383 8.16833 23.4 8.255 22.6417C8.29833 22.2517 8.84 21.8617 9.85833 21.45C16.185 18.6983 20.3883 16.8783 22.49 16.0117C28.5133 13.4983 29.7483 13.065 30.5717 13.065C30.745 13.065 31.1567 13.1083 31.4167 13.325C31.6333 13.4983 31.6983 13.7367 31.72 13.91C31.6983 14.04 31.7417 14.43 31.72 14.7333Z" fill="#02075D"/>
</svg>
